<svg
  width="1150"
  height="156"
  viewBox="0 0 1150 156"
  fill="none"
  xmlns="http://www.w3.org/2000/svg"
>
  <path
    d="M0 21H1130C1141.05 21 1150 29.9543 1150 41V132C1150 143.046 1141.05 152 1130 152H20C8.95433 152 0 143.046 0 132V21Z"
    fill="#3F3F46"
  />
  <g filter="url(#filter0_d_358_46)">
    <path
      d="M0 24C0 12.9543 8.9543 4 20 4H442C453.046 4 462 12.9543 462 24V152H20C8.95429 152 0 143.046 0 132V24Z"
      fill="#3F3F46"
    />
  </g>
  <line x1="582.5" y1="72" x2="582.5" y2="102" stroke="#D6D1D1" />
  <line x1="724.5" y1="72" x2="724.5" y2="102" stroke="#D6D1D1" />
  <line x1="858.5" y1="72" x2="858.5" y2="102" stroke="#D6D1D1" />
  <line x1="1003.5" y1="72" x2="1003.5" y2="102" stroke="#D6D1D1" />
  <defs>
    <filter
      id="filter0_d_358_46"
      x="0"
      y="0"
      width="470"
      height="156"
      filterUnits="userSpaceOnUse"
      color-interpolation-filters="sRGB"
    >
      <feFlood flood-opacity="0" result="BackgroundImageFix" />
      <feColorMatrix
        in="SourceAlpha"
        type="matrix"
        values="0 0 0 0 0 0 0 0 0 0 0 0 0 0 0 0 0 0 127 0"
        result="hardAlpha"
      />
      <feOffset dx="4" />
      <feGaussianBlur stdDeviation="2" />
      <feComposite in2="hardAlpha" operator="out" />
      <feColorMatrix
        type="matrix"
        values="0 0 0 0 0 0 0 0 0 0 0 0 0 0 0 0 0 0 0.25 0"
      />
      <feBlend
        mode="normal"
        in2="BackgroundImageFix"
        result="effect1_dropShadow_358_46"
      />
      <feBlend
        mode="normal"
        in="SourceGraphic"
        in2="effect1_dropShadow_358_46"
        result="shape"
      />
    </filter>
  </defs>
</svg>
