<svg width="1445" height="133" viewBox="0 0 1445 133" fill="none" xmlns="http://www.w3.org/2000/svg">
<path d="M0 9H658V89H40C17.9086 89 0 71.0914 0 49V9Z" fill="#3F3F46"/>
<path d="M30 9H552V9C552 4.02944 547.971 0 543 0H39C34.0294 0 30 4.02944 30 9V9Z" fill="#3B82F6" fill-opacity="0.8"/>
<path d="M393 93C393 115.091 410.909 133 433 133H658V89H393V93Z" fill="#262626"/>
<path d="M787 133H1012C1034.09 133 1052 115.091 1052 93V89H787V133Z" fill="#262626"/>
<path d="M893 9H1415V9C1415 4.02944 1410.97 0 1406 0H902C897.029 0 893 4.02944 893 9V9Z" fill="#F97316" fill-opacity="0.8"/>
<path d="M787 9H1445V49C1445 71.0914 1427.09 89 1405 89H787V9Z" fill="#3F3F46"/>
<path d="M787 9H893V49C893 71.0914 875.091 89 853 89H787V9Z" fill="#D2661C"/>
<path d="M552 9H658V90H592C569.909 90 552 72.0914 552 50V9Z" fill="#3A72CF"/>
</svg>
